<?xml version="1.0" encoding="UTF-8"?>
<!DOCTYPE svg PUBLIC "-//W3C//DTD SVG 1.1//EN" "http://www.w3.org/Graphics/SVG/1.1/DTD/svg11.dtd">
<!-- Creator: CorelDRAW 2021 (64-Bit) -->
<svg xmlns="http://www.w3.org/2000/svg" xml:space="preserve" width="1.04846in" height="1.01618in" version="1.1" style="shape-rendering:geometricPrecision; text-rendering:geometricPrecision; image-rendering:optimizeQuality; fill-rule:evenodd; clip-rule:evenodd"
viewBox="0 0 1048.46 1016.18"
 xmlns:xlink="http://www.w3.org/1999/xlink"
 xmlns:xodm="http://www.corel.com/coreldraw/odm/2003">
 <defs>
  <style type="text/css">
   <![CDATA[
    .fil0 {fill:blue}
   ]]>
  </style>
 </defs>
 <g id="Layer_x0020_1">
  <metadata id="CorelCorpID_0Corel-Layer"/>
  <path class="fil0" d="M671.35 1.92l258.58 0 116.1 0 0 116.1 0 258.58 -116.1 0 0 -258.58 -258.58 0 0 -116.1zm-673.78 641.48l258.58 0 116.1 0 0 116.1 0 258.58 -116.1 0 0 -258.58 -258.58 0 0 -116.1zm168.44 -160.37l258.58 0 116.1 0 0 116.1 0 258.58 -116.1 0 0 -258.58 -258.58 0 0 -116.1zm168.44 -160.37l258.58 0 116.1 0 0 116.1 0 258.58 -116.1 0 0 -258.58 -258.58 0 0 -116.1zm168.44 -160.37l258.58 0 116.1 0 0 116.1 0 258.58 -116.1 0 0 -258.58 -258.58 0 0 -116.1z"/>
 </g>
</svg>
