<?xml version="1.0" encoding="UTF-8"?>
<!DOCTYPE svg PUBLIC "-//W3C//DTD SVG 1.1//EN" "http://www.w3.org/Graphics/SVG/1.1/DTD/svg11.dtd">
<!-- Creator: CorelDRAW 2021 (64-Bit) -->
<svg xmlns="http://www.w3.org/2000/svg" xml:space="preserve" width="0.316142in" height="0.784764in" version="1.1" style="shape-rendering:geometricPrecision; text-rendering:geometricPrecision; image-rendering:optimizeQuality; fill-rule:evenodd; clip-rule:evenodd"
viewBox="0 0 316.14 784.76"
 xmlns:xlink="http://www.w3.org/1999/xlink"
 xmlns:xodm="http://www.corel.com/coreldraw/odm/2003">
 <defs>
  <style type="text/css">
   <![CDATA[
    .fil0 {fill:blue;fill-rule:nonzero}
   ]]>
  </style>
 </defs>
 <g id="Layer_x0020_1">
  <metadata id="CorelCorpID_0Corel-Layer"/>
  <path class="fil0" d="M38.04 0.95c11.21,0 21.39,4.56 28.76,11.94 7.37,7.35 11.94,17.53 11.94,28.76 0,11.23 -4.56,21.41 -11.93,28.78 -7.36,7.36 -17.54,11.93 -28.78,11.93 -11.23,0 -21.41,-4.56 -28.78,-11.93l-0.35 -0.39c-7.16,-7.34 -11.57,-17.37 -11.57,-28.39 0,-11.2 4.56,-21.37 11.93,-28.75l0.04 -0.04c7.38,-7.36 17.54,-11.91 28.74,-11.91zm234.76 703.37c11.21,0 21.39,4.56 28.76,11.94 7.37,7.35 11.94,17.53 11.94,28.76 0,11.23 -4.56,21.41 -11.93,28.78 -7.36,7.36 -17.54,11.93 -28.78,11.93 -11.23,0 -21.41,-4.56 -28.78,-11.93l-0.35 -0.39c-7.16,-7.34 -11.57,-17.37 -11.57,-28.39 0,-11.2 4.56,-21.37 11.93,-28.75l0.04 -0.04c7.38,-7.36 17.54,-11.91 28.74,-11.91zm19.35 21.34c-4.93,-4.94 -11.78,-8 -19.35,-8 -7.57,0 -14.42,3.06 -19.35,7.99 -4.96,4.95 -8.01,11.8 -8.01,19.37 0,7.43 2.94,14.16 7.7,19.06l0.31 0.29c4.94,4.94 11.79,8.01 19.35,8.01 7.56,0 14.41,-3.07 19.35,-8.01 4.94,-4.94 8.01,-11.79 8.01,-19.35 0,-7.56 -3.07,-14.41 -8.01,-19.36zm-136.73 -21.34c11.21,0 21.39,4.56 28.76,11.94 7.37,7.35 11.94,17.53 11.94,28.76 0,11.23 -4.56,21.41 -11.93,28.78 -7.36,7.36 -17.54,11.93 -28.78,11.93 -11.23,0 -21.41,-4.56 -28.78,-11.93l-0.35 -0.39c-7.16,-7.34 -11.57,-17.37 -11.57,-28.39 0,-11.2 4.56,-21.37 11.93,-28.75l0.04 -0.04c7.38,-7.36 17.54,-11.91 28.74,-11.91zm19.35 21.34c-4.93,-4.94 -11.78,-8 -19.35,-8 -7.57,0 -14.42,3.06 -19.35,7.99 -4.96,4.95 -8.01,11.8 -8.01,19.37 0,7.43 2.94,14.16 7.7,19.06l0.31 0.29c4.94,4.94 11.79,8.01 19.35,8.01 7.56,0 14.41,-3.07 19.35,-8.01 4.94,-4.94 8.01,-11.79 8.01,-19.35 0,-7.56 -3.07,-14.41 -8.01,-19.36zm-136.73 -21.34c11.21,0 21.39,4.56 28.76,11.94 7.37,7.35 11.94,17.53 11.94,28.76 0,11.23 -4.56,21.41 -11.93,28.78 -7.36,7.36 -17.54,11.93 -28.78,11.93 -11.23,0 -21.41,-4.56 -28.78,-11.93l-0.35 -0.39c-7.16,-7.34 -11.57,-17.37 -11.57,-28.39 0,-11.2 4.56,-21.37 11.93,-28.75l0.04 -0.04c7.38,-7.36 17.54,-11.91 28.74,-11.91zm19.35 21.34c-4.93,-4.94 -11.78,-8 -19.35,-8 -7.57,0 -14.42,3.06 -19.35,7.99 -4.96,4.95 -8.01,11.8 -8.01,19.37 0,7.43 2.94,14.16 7.7,19.06l0.31 0.29c4.94,4.94 11.79,8.01 19.35,8.01 7.56,0 14.41,-3.07 19.35,-8.01 4.94,-4.94 8.01,-11.79 8.01,-19.35 0,-7.56 -3.07,-14.41 -8.01,-19.36zm215.41 -138.57c11.21,0 21.39,4.56 28.76,11.94 7.37,7.35 11.94,17.53 11.94,28.76 0,11.23 -4.56,21.41 -11.93,28.78 -7.36,7.36 -17.54,11.93 -28.78,11.93 -11.23,0 -21.41,-4.56 -28.78,-11.93l-0.35 -0.39c-7.16,-7.34 -11.57,-17.37 -11.57,-28.39 0,-11.2 4.56,-21.37 11.93,-28.75l0.04 -0.04c7.38,-7.36 17.54,-11.91 28.74,-11.91zm19.35 21.34c-4.93,-4.94 -11.78,-8 -19.35,-8 -7.57,0 -14.42,3.06 -19.35,7.99 -4.96,4.95 -8.01,11.8 -8.01,19.37 0,7.43 2.94,14.16 7.7,19.06l0.31 0.29c4.94,4.94 11.79,8.01 19.35,8.01 7.56,0 14.41,-3.07 19.35,-8.01 4.94,-4.94 8.01,-11.79 8.01,-19.35 0,-7.56 -3.07,-14.41 -8.01,-19.36zm-136.73 -21.34c11.21,0 21.39,4.56 28.76,11.94 7.37,7.35 11.94,17.53 11.94,28.76 0,11.23 -4.56,21.41 -11.93,28.78 -7.36,7.36 -17.54,11.93 -28.78,11.93 -11.23,0 -21.41,-4.56 -28.78,-11.93l-0.35 -0.39c-7.16,-7.34 -11.57,-17.37 -11.57,-28.39 0,-11.2 4.56,-21.37 11.93,-28.75l0.04 -0.04c7.38,-7.36 17.54,-11.91 28.74,-11.91zm19.35 21.34c-4.93,-4.94 -11.78,-8 -19.35,-8 -7.57,0 -14.42,3.06 -19.35,7.99 -4.96,4.95 -8.01,11.8 -8.01,19.37 0,7.43 2.94,14.16 7.7,19.06l0.31 0.29c4.94,4.94 11.79,8.01 19.35,8.01 7.56,0 14.41,-3.07 19.35,-8.01 4.94,-4.94 8.01,-11.79 8.01,-19.35 0,-7.56 -3.07,-14.41 -8.01,-19.36zm-136.73 -21.34c11.21,0 21.39,4.56 28.76,11.94 7.37,7.35 11.94,17.53 11.94,28.76 0,11.23 -4.56,21.41 -11.93,28.78 -7.36,7.36 -17.54,11.93 -28.78,11.93 -11.23,0 -21.41,-4.56 -28.78,-11.93l-0.35 -0.39c-7.16,-7.34 -11.57,-17.37 -11.57,-28.39 0,-11.2 4.56,-21.37 11.93,-28.75l0.04 -0.04c7.38,-7.36 17.54,-11.91 28.74,-11.91zm19.35 21.34c-4.93,-4.94 -11.78,-8 -19.35,-8 -7.57,0 -14.42,3.06 -19.35,7.99 -4.96,4.95 -8.01,11.8 -8.01,19.37 0,7.43 2.94,14.16 7.7,19.06l0.31 0.29c4.94,4.94 11.79,8.01 19.35,8.01 7.56,0 14.41,-3.07 19.35,-8.01 4.94,-4.94 8.01,-11.79 8.01,-19.35 0,-7.56 -3.07,-14.41 -8.01,-19.36zm215.41 -138.57c11.21,0 21.39,4.56 28.76,11.94 7.37,7.35 11.94,17.53 11.94,28.76 0,11.23 -4.56,21.41 -11.93,28.78 -7.36,7.36 -17.54,11.93 -28.78,11.93 -11.23,0 -21.41,-4.56 -28.78,-11.93l-0.35 -0.39c-7.16,-7.34 -11.57,-17.37 -11.57,-28.39 0,-11.2 4.56,-21.37 11.93,-28.75l0.04 -0.04c7.38,-7.36 17.54,-11.91 28.74,-11.91zm19.35 21.34c-4.93,-4.94 -11.78,-8 -19.35,-8 -7.57,0 -14.42,3.06 -19.35,7.99 -4.96,4.95 -8.01,11.8 -8.01,19.37 0,7.43 2.94,14.16 7.7,19.06l0.31 0.29c4.94,4.94 11.79,8.01 19.35,8.01 7.56,0 14.41,-3.07 19.35,-8.01 4.94,-4.94 8.01,-11.79 8.01,-19.35 0,-7.56 -3.07,-14.41 -8.01,-19.36zm-136.73 -21.34c11.21,0 21.39,4.56 28.76,11.94 7.37,7.35 11.94,17.53 11.94,28.76 0,11.23 -4.56,21.41 -11.93,28.78 -7.36,7.36 -17.54,11.93 -28.78,11.93 -11.23,0 -21.41,-4.56 -28.78,-11.93l-0.35 -0.39c-7.16,-7.34 -11.57,-17.37 -11.57,-28.39 0,-11.2 4.56,-21.37 11.93,-28.75l0.04 -0.04c7.38,-7.36 17.54,-11.91 28.74,-11.91zm19.35 21.34c-4.93,-4.94 -11.78,-8 -19.35,-8 -7.57,0 -14.42,3.06 -19.35,7.99 -4.96,4.95 -8.01,11.8 -8.01,19.37 0,7.43 2.94,14.16 7.7,19.06l0.31 0.29c4.94,4.94 11.79,8.01 19.35,8.01 7.56,0 14.41,-3.07 19.35,-8.01 4.94,-4.94 8.01,-11.79 8.01,-19.35 0,-7.56 -3.07,-14.41 -8.01,-19.36zm-136.73 -21.34c11.21,0 21.39,4.56 28.76,11.94 7.37,7.35 11.94,17.53 11.94,28.76 0,11.23 -4.56,21.41 -11.93,28.78 -7.36,7.36 -17.54,11.93 -28.78,11.93 -11.23,0 -21.41,-4.56 -28.78,-11.93l-0.35 -0.39c-7.16,-7.34 -11.57,-17.37 -11.57,-28.39 0,-11.2 4.56,-21.37 11.93,-28.75l0.04 -0.04c7.38,-7.36 17.54,-11.91 28.74,-11.91zm19.35 21.34c-4.93,-4.94 -11.78,-8 -19.35,-8 -7.57,0 -14.42,3.06 -19.35,7.99 -4.96,4.95 -8.01,11.8 -8.01,19.37 0,7.43 2.94,14.16 7.7,19.06l0.31 0.29c4.94,4.94 11.79,8.01 19.35,8.01 7.56,0 14.41,-3.07 19.35,-8.01 4.94,-4.94 8.01,-11.79 8.01,-19.35 0,-7.56 -3.07,-14.41 -8.01,-19.36zm215.41 -138.57c11.21,0 21.39,4.56 28.76,11.94 7.37,7.35 11.94,17.53 11.94,28.76 0,11.23 -4.56,21.41 -11.93,28.78 -7.36,7.36 -17.54,11.93 -28.78,11.93 -11.23,0 -21.41,-4.56 -28.78,-11.93l-0.35 -0.39c-7.16,-7.34 -11.57,-17.37 -11.57,-28.39 0,-11.2 4.56,-21.37 11.93,-28.75l0.04 -0.04c7.38,-7.36 17.54,-11.91 28.74,-11.91zm19.35 21.34c-4.93,-4.94 -11.78,-8 -19.35,-8 -7.57,0 -14.42,3.06 -19.35,7.99 -4.96,4.95 -8.01,11.8 -8.01,19.37 0,7.43 2.94,14.16 7.7,19.06l0.31 0.29c4.94,4.94 11.79,8.01 19.35,8.01 7.56,0 14.41,-3.07 19.35,-8.01 4.94,-4.94 8.01,-11.79 8.01,-19.35 0,-7.56 -3.07,-14.41 -8.01,-19.36zm-136.73 -21.34c11.21,0 21.39,4.56 28.76,11.94 7.37,7.35 11.94,17.53 11.94,28.76 0,11.23 -4.56,21.41 -11.93,28.78 -7.36,7.36 -17.54,11.93 -28.78,11.93 -11.23,0 -21.41,-4.56 -28.78,-11.93l-0.35 -0.39c-7.16,-7.34 -11.57,-17.37 -11.57,-28.39 0,-11.2 4.56,-21.37 11.93,-28.75l0.04 -0.04c7.38,-7.36 17.54,-11.91 28.74,-11.91zm19.35 21.34c-4.93,-4.94 -11.78,-8 -19.35,-8 -7.57,0 -14.42,3.06 -19.35,7.99 -4.96,4.95 -8.01,11.8 -8.01,19.37 0,7.43 2.94,14.16 7.7,19.06l0.31 0.29c4.94,4.94 11.79,8.01 19.35,8.01 7.56,0 14.41,-3.07 19.35,-8.01 4.94,-4.94 8.01,-11.79 8.01,-19.35 0,-7.56 -3.07,-14.41 -8.01,-19.36zm-136.73 -21.34c11.21,0 21.39,4.56 28.76,11.94 7.37,7.35 11.94,17.53 11.94,28.76 0,11.23 -4.56,21.41 -11.93,28.78 -7.36,7.36 -17.54,11.93 -28.78,11.93 -11.23,0 -21.41,-4.56 -28.78,-11.93l-0.35 -0.39c-7.16,-7.34 -11.57,-17.37 -11.57,-28.39 0,-11.2 4.56,-21.37 11.93,-28.75l0.04 -0.04c7.38,-7.36 17.54,-11.91 28.74,-11.91zm19.35 21.34c-4.93,-4.94 -11.78,-8 -19.35,-8 -7.57,0 -14.42,3.06 -19.35,7.99 -4.96,4.95 -8.01,11.8 -8.01,19.37 0,7.43 2.94,14.16 7.7,19.06l0.31 0.29c4.94,4.94 11.79,8.01 19.35,8.01 7.56,0 14.41,-3.07 19.35,-8.01 4.94,-4.94 8.01,-11.79 8.01,-19.35 0,-7.56 -3.07,-14.41 -8.01,-19.36zm215.41 -138.57c11.21,0 21.39,4.56 28.76,11.94 7.37,7.35 11.94,17.53 11.94,28.76 0,11.23 -4.56,21.41 -11.93,28.78 -7.36,7.36 -17.54,11.93 -28.78,11.93 -11.23,0 -21.41,-4.56 -28.78,-11.93l-0.35 -0.39c-7.16,-7.34 -11.57,-17.37 -11.57,-28.39 0,-11.2 4.56,-21.37 11.93,-28.75l0.04 -0.04c7.38,-7.36 17.54,-11.91 28.74,-11.91zm19.35 21.34c-4.93,-4.94 -11.78,-8 -19.35,-8 -7.57,0 -14.42,3.06 -19.35,7.99 -4.96,4.95 -8.01,11.8 -8.01,19.37 0,7.43 2.94,14.16 7.7,19.06l0.31 0.29c4.94,4.94 11.79,8.01 19.35,8.01 7.56,0 14.41,-3.07 19.35,-8.01 4.94,-4.94 8.01,-11.79 8.01,-19.35 0,-7.56 -3.07,-14.41 -8.01,-19.36zm-136.73 -21.34c11.21,0 21.39,4.56 28.76,11.94 7.37,7.35 11.94,17.53 11.94,28.76 0,11.23 -4.56,21.41 -11.93,28.78 -7.36,7.36 -17.54,11.93 -28.78,11.93 -11.23,0 -21.41,-4.56 -28.78,-11.93l-0.35 -0.39c-7.16,-7.34 -11.57,-17.37 -11.57,-28.39 0,-11.2 4.56,-21.37 11.93,-28.75l0.04 -0.04c7.38,-7.36 17.54,-11.91 28.74,-11.91zm19.35 21.34c-4.93,-4.94 -11.78,-8 -19.35,-8 -7.57,0 -14.42,3.06 -19.35,7.99 -4.96,4.95 -8.01,11.8 -8.01,19.37 0,7.43 2.94,14.16 7.7,19.06l0.31 0.29c4.94,4.94 11.79,8.01 19.35,8.01 7.56,0 14.41,-3.07 19.35,-8.01 4.94,-4.94 8.01,-11.79 8.01,-19.35 0,-7.56 -3.07,-14.41 -8.01,-19.36zm-136.73 -21.34c11.21,0 21.39,4.56 28.76,11.94 7.37,7.35 11.94,17.53 11.94,28.76 0,11.23 -4.56,21.41 -11.93,28.78 -7.36,7.36 -17.54,11.93 -28.78,11.93 -11.23,0 -21.41,-4.56 -28.78,-11.93l-0.35 -0.39c-7.16,-7.34 -11.57,-17.37 -11.57,-28.39 0,-11.2 4.56,-21.37 11.93,-28.75l0.04 -0.04c7.38,-7.36 17.54,-11.91 28.74,-11.91zm19.35 21.34c-4.93,-4.94 -11.78,-8 -19.35,-8 -7.57,0 -14.42,3.06 -19.35,7.99 -4.96,4.95 -8.01,11.8 -8.01,19.37 0,7.43 2.94,14.16 7.7,19.06l0.31 0.29c4.94,4.94 11.79,8.01 19.35,8.01 7.56,0 14.41,-3.07 19.35,-8.01 4.94,-4.94 8.01,-11.79 8.01,-19.35 0,-7.56 -3.07,-14.41 -8.01,-19.36zm215.41 -138.57c11.21,0 21.39,4.56 28.76,11.94 7.37,7.35 11.94,17.53 11.94,28.76 0,11.23 -4.56,21.41 -11.93,28.78 -7.36,7.36 -17.54,11.93 -28.78,11.93 -11.23,0 -21.41,-4.56 -28.78,-11.93l-0.35 -0.39c-7.16,-7.34 -11.57,-17.37 -11.57,-28.39 0,-11.2 4.56,-21.37 11.93,-28.75l0.04 -0.04c7.38,-7.36 17.54,-11.91 28.74,-11.91zm19.35 21.34c-4.93,-4.94 -11.78,-8 -19.35,-8 -7.57,0 -14.42,3.06 -19.35,7.99 -4.96,4.95 -8.01,11.8 -8.01,19.37 0,7.43 2.94,14.16 7.7,19.06l0.31 0.29c4.94,4.94 11.79,8.01 19.35,8.01 7.56,0 14.41,-3.07 19.35,-8.01 4.94,-4.94 8.01,-11.79 8.01,-19.35 0,-7.56 -3.07,-14.41 -8.01,-19.36zm-136.73 -21.34c11.21,0 21.39,4.56 28.76,11.94 7.37,7.35 11.94,17.53 11.94,28.76 0,11.23 -4.56,21.41 -11.93,28.78 -7.36,7.36 -17.54,11.93 -28.78,11.93 -11.23,0 -21.41,-4.56 -28.78,-11.93l-0.35 -0.39c-7.16,-7.34 -11.57,-17.37 -11.57,-28.39 0,-11.2 4.56,-21.37 11.93,-28.75l0.04 -0.04c7.38,-7.36 17.54,-11.91 28.74,-11.91zm19.35 21.34c-4.93,-4.94 -11.78,-8 -19.35,-8 -7.57,0 -14.42,3.06 -19.35,7.99 -4.96,4.95 -8.01,11.8 -8.01,19.37 0,7.43 2.94,14.16 7.7,19.06l0.31 0.29c4.94,4.94 11.79,8.01 19.35,8.01 7.56,0 14.41,-3.07 19.35,-8.01 4.94,-4.94 8.01,-11.79 8.01,-19.35 0,-7.56 -3.07,-14.41 -8.01,-19.36zm-136.73 -21.34c11.21,0 21.39,4.56 28.76,11.94 7.37,7.35 11.94,17.53 11.94,28.76 0,11.23 -4.56,21.41 -11.93,28.78 -7.36,7.36 -17.54,11.93 -28.78,11.93 -11.23,0 -21.41,-4.56 -28.78,-11.93l-0.35 -0.39c-7.16,-7.34 -11.57,-17.37 -11.57,-28.39 0,-11.2 4.56,-21.37 11.93,-28.75l0.04 -0.04c7.38,-7.36 17.54,-11.91 28.74,-11.91zm19.35 21.34c-4.93,-4.94 -11.78,-8 -19.35,-8 -7.57,0 -14.42,3.06 -19.35,7.99 -4.96,4.95 -8.01,11.8 -8.01,19.37 0,7.43 2.94,14.16 7.7,19.06l0.31 0.29c4.94,4.94 11.79,8.01 19.35,8.01 7.56,0 14.41,-3.07 19.35,-8.01 4.94,-4.94 8.01,-11.79 8.01,-19.35 0,-7.56 -3.07,-14.41 -8.01,-19.36zm215.41 -138.57c11.21,0 21.39,4.56 28.76,11.94 7.37,7.35 11.94,17.53 11.94,28.76 0,11.23 -4.56,21.41 -11.93,28.78 -7.36,7.36 -17.54,11.93 -28.78,11.93 -11.23,0 -21.41,-4.56 -28.78,-11.93l-0.35 -0.39c-7.16,-7.34 -11.57,-17.37 -11.57,-28.39 0,-11.2 4.56,-21.37 11.93,-28.75l0.04 -0.04c7.38,-7.36 17.54,-11.91 28.74,-11.91zm19.35 21.34c-4.93,-4.94 -11.78,-8 -19.35,-8 -7.57,0 -14.42,3.06 -19.35,7.99 -4.96,4.95 -8.01,11.8 -8.01,19.37 0,7.43 2.94,14.16 7.7,19.06l0.31 0.29c4.94,4.94 11.79,8.01 19.35,8.01 7.56,0 14.41,-3.07 19.35,-8.01 4.94,-4.94 8.01,-11.79 8.01,-19.35 0,-7.56 -3.07,-14.41 -8.01,-19.36zm-136.73 -21.34c11.21,0 21.39,4.56 28.76,11.94 7.37,7.35 11.94,17.53 11.94,28.76 0,11.23 -4.56,21.41 -11.93,28.78 -7.36,7.36 -17.54,11.93 -28.78,11.93 -11.23,0 -21.41,-4.56 -28.78,-11.93l-0.35 -0.39c-7.16,-7.34 -11.57,-17.37 -11.57,-28.39 0,-11.2 4.56,-21.37 11.93,-28.75l0.04 -0.04c7.38,-7.36 17.54,-11.91 28.74,-11.91zm19.35 21.34c-4.93,-4.94 -11.78,-8 -19.35,-8 -7.57,0 -14.42,3.06 -19.35,7.99 -4.96,4.95 -8.01,11.8 -8.01,19.37 0,7.43 2.94,14.16 7.7,19.06l0.31 0.29c4.94,4.94 11.79,8.01 19.35,8.01 7.56,0 14.41,-3.07 19.35,-8.01 4.94,-4.94 8.01,-11.79 8.01,-19.35 0,-7.56 -3.07,-14.41 -8.01,-19.36zm-117.38 0c-4.93,-4.94 -11.78,-8 -19.35,-8 -7.57,0 -14.42,3.06 -19.35,7.99 -4.96,4.95 -8.01,11.8 -8.01,19.37 0,7.43 2.94,14.16 7.7,19.06l0.31 0.29c4.94,4.94 11.79,8.01 19.35,8.01 7.56,0 14.41,-3.07 19.35,-8.01 4.94,-4.94 8.01,-11.79 8.01,-19.35 0,-7.56 -3.07,-14.41 -8.01,-19.36z"/>
 </g>
</svg>
